<?xml version="1.0" encoding="UTF-8" standalone="no"?>
<!DOCTYPE svg PUBLIC "-//W3C//DTD SVG 1.1//EN" "http://www.w3.org/Graphics/SVG/1.1/DTD/svg11.dtd">
<svg width="100%" height="100%" viewBox="0 0 1114 950" version="1.1" xmlns="http://www.w3.org/2000/svg" xmlns:xlink="http://www.w3.org/1999/xlink" xml:space="preserve" xmlns:serif="http://www.serif.com/" style="fill-rule:evenodd;clip-rule:evenodd;stroke-linejoin:round;stroke-miterlimit:2;">
    <rect id="Mesa-de-trabajo1" serif:id="Mesa de trabajo1" x="0" y="0" width="1113.17" height="949.475" style="fill:none;"/>
    <clipPath id="_clip1">
        <rect id="Mesa-de-trabajo11" serif:id="Mesa de trabajo1" x="0" y="0" width="1113.17" height="949.475"/>
    </clipPath>
    <g clip-path="url(#_clip1)">
        <g transform="matrix(4.16667,0,0,4.16667,434.528,632.806)">
            <path d="M0,-13.203L25.639,-13.203C25.066,-16.391 23.742,-18.766 21.67,-20.33C19.596,-21.891 16.773,-22.674 13.202,-22.674C9.694,-22.674 6.824,-21.876 4.592,-20.282C2.359,-18.686 0.828,-16.326 0,-13.203M13.776,23.247C7.462,23.247 1.975,22.02 -2.678,19.565C-7.335,17.11 -10.923,13.633 -13.442,9.136C-15.962,4.641 -17.221,-0.669 -17.221,-6.792C-17.221,-12.915 -15.993,-18.192 -13.536,-22.625C-11.083,-27.058 -7.574,-30.47 -3.013,-32.862C1.546,-35.254 6.919,-36.45 13.107,-36.45C19.23,-36.45 24.491,-35.286 28.892,-32.957C33.292,-30.629 36.657,-27.297 38.985,-22.96C41.312,-18.623 42.477,-13.425 42.477,-7.367L42.477,-1.722L-0.286,-1.722C0.415,1.977 1.945,4.769 4.306,6.65C6.664,8.532 9.791,9.471 13.681,9.471C16.804,9.471 19.245,8.978 21,7.989C22.752,7.001 24.013,5.422 24.778,3.253L42.382,3.253C41.169,9.504 38.044,14.398 33.006,17.937C27.967,21.479 21.556,23.247 13.776,23.247" style="fill:white;fill-rule:nonzero;"/>
        </g>
        <g transform="matrix(4.16667,0,0,4.16667,319.725,402.001)">
            <path d="M0,77.493L-19.038,77.493L-57.018,26.788L-57.401,26.788L-57.401,77.493L-74.621,77.493L-74.621,0L-56.348,0L-17.602,52.141L-17.219,52.141L-17.219,0L0,0L0,77.493Z" style="fill:white;fill-rule:nonzero;"/>
        </g>
        <g transform="matrix(4.16667,0,0,4.16667,1041.02,411.898)">
            <path d="M0,74.621C-4.466,74.621 -7.925,73.49 -10.38,71.225C-12.837,68.961 -14.063,65.502 -14.063,60.845L-14.063,30.995L-23.63,30.995L-23.63,17.219L-13.871,17.219L-13.871,0L3.348,0L3.348,17.219L15.977,17.219L15.977,30.995L3.539,30.995L3.539,60.845L17.316,60.845L17.316,74.621L0,74.621Z" style="fill:white;fill-rule:nonzero;"/>
        </g>
        <g transform="matrix(1,0,0,1,0,571.999)">
            <g transform="matrix(198.376,0,0,198.376,427.53,322.923)">
            </g>
            <text x="0px" y="322.923px" style="font-family:'Helvetica';font-size:198.376px;fill:white;">S<tspan x="138.797px 200.394px 317.203px " y="322.923px 322.923px 322.923px ">tep</tspan></text>
        </g>
        <g transform="matrix(1,0,0,1,2.36043,227.663)">
            <g transform="matrix(110.943,0,0,110.943,192.582,151.471)">
            </g>
            <text x="0.745px" y="151.471px" style="font-family:'Helvetica';font-size:110.943px;fill:white;">T<tspan x="68.847px 130.881px " y="151.471px 151.471px ">he</tspan></text>
        </g>
        <g transform="matrix(4.16667,0,0,4.16667,651.714,669.103)">
            <path d="M0,14.536L20.01,14.536L30.812,0L11.033,0L0,14.536Z" style="fill:white;fill-rule:nonzero;"/>
        </g>
        <g transform="matrix(4.16667,0,0,4.16667,832.364,125.469)">
            <path d="M0,114.895L21.58,86.155L1.569,86.155L-10.158,101.856C-11.244,100.5 -12.319,99.131 -13.417,97.791C-62.343,38.107 -126.433,-3.543 -193.995,-30.113C-127.296,2.909 -68.283,52.248 -19.723,114.78L-10.307,127.461L-10.299,127.451L2.648,145.008L22.757,145.008L0,114.895Z" style="fill:rgb(203,215,74);fill-rule:nonzero;"/>
        </g>
    </g>
</svg>
